<svg width="41" height="41" viewBox="0 0 41 41" fill="none" xmlns="http://www.w3.org/2000/svg">
<path d="M37.5834 20.5C37.5834 11.0651 29.9349 3.41667 20.5001 3.41667C11.0652 3.41667 3.41675 11.0651 3.41675 20.5C3.41675 29.9349 11.0652 37.5833 20.5001 37.5833C29.9349 37.5833 37.5834 29.9349 37.5834 20.5Z" fill="#0052FF"/>
<path d="M20.5049 26.5059C17.1867 26.5059 14.499 23.8182 14.499 20.5C14.499 17.1818 17.1867 14.4941 20.5049 14.4941C23.4778 14.4941 25.9452 16.6613 26.4207 19.499H32.4716C31.9611 13.333 26.801 8.48828 20.5049 8.48828C13.8734 8.48828 8.49316 13.8685 8.49316 20.5C8.49316 27.1315 13.8734 32.5117 20.5049 32.5117C26.801 32.5117 31.9611 27.667 32.4716 21.501H26.4157C25.9402 24.3387 23.4778 26.5059 20.5049 26.5059Z" fill="white"/>
</svg>
