<svg width="41" height="41" viewBox="0 0 41 41" fill="none" xmlns="http://www.w3.org/2000/svg">
<path d="M19.4259 5.67269C22.3868 5.48198 25.3979 6.07417 28.0577 7.39906C31.9822 9.32618 35.1038 12.809 36.5792 16.9142C37.2316 18.7309 37.5829 20.648 37.5829 22.5751V29.7315C37.5829 30.0226 37.593 30.3237 37.5227 30.6048C37.3621 31.3274 36.8502 31.9598 36.1677 32.2709C35.6959 32.4917 35.154 32.5218 34.6521 32.4415C33.5581 32.2408 32.7149 31.217 32.7049 30.1129C32.6949 27.8948 32.7049 25.6766 32.7049 23.4483C32.725 22.816 32.725 22.1435 32.3837 21.5915C31.8317 20.5677 30.4867 20.0759 29.4127 20.5175C28.4994 20.8387 27.8369 21.7621 27.8269 22.7357C27.8169 24.994 27.8269 27.2423 27.8269 29.4906C27.8269 29.9122 27.847 30.3438 27.7265 30.7453C27.4957 31.5382 26.8332 32.1806 26.0403 32.4014C24.9964 32.6925 23.802 32.2308 23.2701 31.2672C22.9087 30.6851 22.9388 29.9825 22.9489 29.3401C22.9388 27.1018 22.9589 24.8636 22.9388 22.6253C22.9188 21.4911 21.9853 20.4673 20.8511 20.3168C20.1184 20.2064 19.3456 20.4472 18.8136 20.9692C18.3318 21.4208 18.0608 22.0733 18.0608 22.7357V29.2598C18.0508 29.8118 18.121 30.3739 17.9103 30.8858C17.5891 31.8192 16.6456 32.5018 15.6519 32.4717C14.6382 32.5319 13.6445 31.8293 13.3233 30.8758C13.1427 30.404 13.1828 29.9022 13.1828 29.4003C13.1828 27.152 13.1929 24.9037 13.1828 22.6454C13.1728 21.5313 12.3096 20.5175 11.2155 20.3168C10.2319 20.106 9.13788 20.6078 8.63602 21.5011C8.42524 21.8725 8.31484 22.3041 8.31484 22.7257V30.0326C8.32487 30.7453 7.99365 31.4479 7.45165 31.8995C6.62861 32.6222 5.29368 32.6624 4.42045 31.9999C3.78812 31.5683 3.41675 30.8356 3.41675 30.0728V22.6755C3.42679 19.8751 4.12938 17.0848 5.46431 14.6258C6.55835 12.6183 8.05387 10.8217 9.85051 9.39644C12.5605 7.19832 15.953 5.88347 19.4259 5.67269Z" fill="#5442D1"/>
</svg>
